<?xml version="1.0" encoding="iso-8859-1"?>
<!-- Generator: Adobe Illustrator 19.0.0, SVG Export Plug-In . SVG Version: 6.00 Build 0)  -->
<svg version="1.1" id="Layer_1" xmlns="http://www.w3.org/2000/svg" xmlns:xlink="http://www.w3.org/1999/xlink" x="0px" y="0px"
	 viewBox="0 0 512 512" style="enable-background:new 0 0 512 512;" xml:space="preserve">
<rect x="12.801" y="12.8" style="fill:#FFB7B2;" width="332.8" height="486.4"/>
<path style="fill:#573A32;" d="M508.161,246.844l-74.931-76.595c-4.941-5.06-13.047-5.146-18.099-0.205
	c-5.052,4.941-5.146,13.056-0.205,18.099l53.854,55.057H358.401V12.8c0-7.066-5.734-12.8-12.8-12.8h-332.8
	c-7.066,0-12.8,5.734-12.8,12.8v486.4c0,7.066,5.734,12.8,12.8,12.8h332.8c7.066,0,12.8-5.734,12.8-12.8V268.8h110.37
	l-53.854,55.057c-4.941,5.043-4.847,13.158,0.205,18.099c5.06,4.941,13.158,4.855,18.099-0.205l75.128-76.8
	C513.289,259.9,513.204,251.785,508.161,246.844z M332.801,486.4h-307.2V25.6h307.2v217.6H193.682c-7.066,0-12.8,5.734-12.8,12.8
	c0,7.066,5.734,12.8,12.8,12.8h139.119V486.4z"/>
<g>
</g>
<g>
</g>
<g>
</g>
<g>
</g>
<g>
</g>
<g>
</g>
<g>
</g>
<g>
</g>
<g>
</g>
<g>
</g>
<g>
</g>
<g>
</g>
<g>
</g>
<g>
</g>
<g>
</g>
</svg>
